<svg width="24" height="24" viewBox="0 0 24 24" fill="none" xmlns="http://www.w3.org/2000/svg">
<path fill-rule="evenodd" clip-rule="evenodd" d="M19.3939 9.12181L19.5937 11.3181C20.7926 11.6176 21.6918 12.6159 21.8917 13.9138L21.9916 14.9121C22.0915 16.0102 21.2922 17.0086 20.1932 17.1084L4.30741 18.8055C3.20839 18.9054 2.20929 18.1067 2.10938 17.0086L2.00947 16.0102C1.90956 14.7124 2.60893 13.5144 3.70795 13.0153L3.50812 10.819C3.00857 6.42634 6.20571 2.43305 10.6018 2.03372C14.9978 1.63439 18.8943 4.82902 19.3939 9.12181ZM14.9979 22C13.6991 22 12.6001 21.2013 12.2004 20.0034L17.9952 19.4044C17.7954 20.802 16.4966 22 14.9979 22Z" fill="#666666"/>
</svg>
